:SAMPLES-PER-SECOND 30
:FRAME-RANGE 1-668
:FULLY-SPECIFIED
:DEGREES
460
root  -0.222391 38.1104 -21.4358 -125.415 -87.9836 124.853
RightUpLeg  -21.3479 -1.32586 -1.07068
RightLeg  35.3134 -5.12348 -4.15399
RightFoot  -12.0602 -0.0792835 0.37873
RightToes  -1.33073e-015 0 -3.6325e-017
Spine  12.1967 -2.09176 -1.28067
Spine1  -1.42447 -3.28312 5.46141
HEad  1.85879 48.7203 -8.55988
LeftShoulder1  1.5058 -1.42309 -24.3377
LeftArm  -32.8294 -16.5441 -9.30227
LeftForeArm  6.93464 -33.6592 -7.09468
LeftHand  0.124418 -0.720642 -2.30454
RightShoulder  6.37462 9.51285 42.7137
RightArm  4.96471 1.34645 6.78191
RightForeArm  14.8017 28.7919 5.43086
RightHand  -0.786707 4.21979 -9.75673
LeftUpLeg  -15.0937 -5.73232 13.1136
LeftLeg  21.7486 -1.78748 -0.459216
LeftFoot  -5.75433 0.77849 -15.1767
LeftToes  -2.73175e-012 1.00346e-010 -4.28452e-011
461
root  -0.533825 37.902 -20.395 -156.739 -83.7876 155.837
RightUpLeg  -22.3006 3.39659 -3.5568
RightLeg  37.5546 -4.79953 -4.22224
RightFoot  -12.8928 -0.0650055 1.64906
RightToes  -1.33073e-015 0 -3.6325e-017
Spine  13.2309 -1.77975 -0.972248
Spine1  -2.16726 -2.48494 3.24928
HEad  0.534887 51.3877 -9.83212
LeftShoulder1  1.32245 -0.599809 -26.0644
LeftArm  -36.2655 -8.29271 -7.74129
LeftForeArm  12.5444 -43.1491 -9.65555
LeftHand  0.0378482 0.0637321 -0.840351
RightShoulder  6.28674 9.40487 42.4623
RightArm  3.70039 1.72032 6.66289
RightForeArm  16.0001 30.2514 5.71074
RightHand  -0.786056 4.13358 -9.83184
LeftUpLeg  -14.2514 -1.25553 11.6931
LeftLeg  24.881 -6.64106 -3.02372
LeftFoot  -9.95078 0.248144 -15.4784
LeftToes  -2.73175e-012 1.00346e-010 -4.28452e-011
462
root  -0.750736 37.9543 -19.5296 -154.441 -80.2937 153.426
RightUpLeg  -22.6989 7.27001 -6.95867
RightLeg  37.6867 -4.96403 -4.37254
RightFoot  -12.8125 -0.0476205 3.05533
RightToes  -1.33073e-015 0 -3.6325e-017
Spine  13.2636 -1.45024 -2.16399
Spine1  -1.54094 -1.90393 1.06636
HEad  -2.20622 52.9691 -12.089
LeftShoulder1  1.23348 -0.154947 -27.5953
LeftArm  -37.8791 -2.09683 -5.98063
LeftForeArm  16.1993 -48.4252 -11.4525
LeftHand  -0.0178077 0.446498 0.365223
RightShoulder  6.20269 9.04542 43.1379
RightArm  2.05782 2.02777 5.71861
RightForeArm  15.975 31.4684 6.00983
RightHand  -0.805673 3.92035 -10.2864
LeftUpLeg  -13.7012 5.65847 8.4125
LeftLeg  26.1256 -8.75313 -4.31563
LeftFoot  -10.0312 0.204033 -12.5655
LeftToes  -2.73175e-012 1.00346e-010 -4.28452e-011
463
root  -0.9163 38.1465 -18.6432 -156.345 -78.7321 155.601
RightUpLeg  -22.3691 9.28021 -8.9003
RightLeg  35.7542 -5.2224 -4.28573
RightFoot  -11.72 -0.0644581 4.56379
RightToes  -1.33073e-015 0 -3.6325e-017
Spine  13.227 -1.64496 -0.959369
Spine1  -1.47791 -1.60188 -1.0573
HEad  -4.11732 54.3108 -15.0034
LeftShoulder1  1.1207 0.223237 -28.0512
LeftArm  -38.3582 2.46702 -5.72076
LeftForeArm  17.4606 -47.4725 -10.9549
LeftHand  -0.0444321 0.0514767 0.96924
RightShoulder  5.88268 8.38415 43.1955
RightArm  1.34436 1.87115 5.41548
RightForeArm  16.0373 30.5786 5.78783
RightHand  -0.823248 3.85924 -10.5694
LeftUpLeg  -13.5331 7.74519 6.53652
LeftLeg  26.0433 -8.5284 -4.18025
LeftFoot  -9.74793 0.205899 -10.5939
LeftToes  -2.73175e-012 1.00346e-010 -4.28452e-011
464
root  -1.06949 38.4391 -17.7753 -159.875 -78.1557 159.589
RightUpLeg  -21.1878 9.8639 -9.98093
RightLeg  32.0421 -4.78955 -3.46889
RightFoot  -10.0362 -0.137449 6.07215
RightToes  -1.33073e-015 0 -3.6325e-017
Spine  12.8807 -1.83735 1.12447
Spine1  -1.37938 -1.37846 -2.2027
HEad  -4.02308 55.3581 -16.8671
LeftShoulder1  1.04028 0.526179 -28.84
LeftArm  -38.9197 4.91567 -5.17987
LeftForeArm  14.0223 -43.5388 -9.69286
LeftHand  0.00387888 -0.331083 -0.0425469
RightShoulder  5.46194 7.66941 42.6437
RightArm  1.63983 0.843059 5.48799
RightForeArm  14.694 29.2378 5.54194
RightHand  -0.806302 3.98506 -10.2272
LeftUpLeg  -13.371 6.9767 5.43597
LeftLeg  25.0389 -6.82342 -3.13398
LeftFoot  -9.15319 0.239049 -9.63456
LeftToes  -2.73175e-012 1.00346e-010 -4.28452e-011
465
root  -1.19892 38.86 -17.0727 -160.456 -77.4401 160.55
RightUpLeg  -19.2462 9.67888 -11.3392
RightLeg  26.861 -4.11481 -2.49044
RightFoot  -7.73698 -0.286445 7.41894
RightToes  -1.33073e-015 0 -3.6325e-017
Spine  12.4059 -1.48571 1.52658
Spine1  -1.25612 -0.937896 -2.44225
HEad  -2.99553 56.0154 -16.7766
LeftShoulder1  0.949417 0.784865 -28.8178
LeftArm  -38.2668 5.87236 -4.75788
LeftForeArm  11.0052 -38.5889 -8.25854
LeftHand  0.0310626 -0.79477 -0.50536
RightShoulder  4.96339 6.70187 42.4173
RightArm  3.48856 -0.346778 5.25309
RightForeArm  11.4169 27.7796 5.38198
RightHand  -0.74333 3.83444 -9.59748
LeftUpLeg  -12.1454 5.91169 3.89644
LeftLeg  21.7179 -4.51797 -1.64988
LeftFoot  -7.29037 0.354664 -8.78279
LeftToes  -2.73175e-012 1.00346e-010 -4.28452e-011
466
root  -1.28823 39.2541 -16.469 -162.498 -76.1174 163.382
RightUpLeg  -17.6471 9.89751 -12.2669
RightLeg  21.0204 -3.18758 -1.56706
RightFoot  -4.96484 -0.525406 8.8071
RightToes  -1.33073e-015 0 -3.6325e-017
Spine  11.8371 -0.830808 1.89333
Spine1  -1.58864 -0.125965 -3.09913
HEad  -1.65643 56.6362 -15.5679
LeftShoulder1  0.82377 1.09601 -28.0909
LeftArm  -35.7072 6.21442 -3.77357
LeftForeArm  11.031 -34.0782 -6.96754
LeftHand  0.00822348 -0.971248 -0.054133
RightShoulder  4.5669 5.86592 42.5236
RightArm  5.95861 -1.47917 4.99129
RightForeArm  9.18338 25.7805 5.04794
RightHand  -0.701251 4.00548 -8.91654
LeftUpLeg  -10.6677 6.98731 2.95221
LeftLeg  17.4569 -3.80738 -1.03619
LeftFoot  -5.53651 0.425267 -7.72638
LeftToes  -2.73175e-012 1.00346e-010 -4.28452e-011
467
root  -1.31181 39.5846 -15.9387 -164.193 -74.6771 166.192
RightUpLeg  -16.1759 7.11564 -11.9678
RightLeg  14.7109 0.639531 -1.44797
RightFoot  -1.86601 -0.840962 9.9691
RightToes  -1.33073e-015 0 -3.6325e-017
Spine  11.0834 -0.212216 1.60577
Spine1  -1.9872 0.607276 -3.79744
HEad  -1.90395 57.1946 -15.1306
LeftShoulder1  0.710283 1.38816 -27.4293
LeftArm  -34.0743 6.69759 -2.05677
LeftForeArm  8.43345 -32.3171 -6.65482
LeftHand  0.062821 -0.896847 -1.07683
RightShoulder  4.31044 5.33226 42.5666
RightArm  8.05852 -2.33552 4.83154
RightForeArm  8.0684 23.8798 4.68847
RightHand  -0.715397 4.13318 -8.97628
LeftUpLeg  -9.36757 8.46061 2.77554
LeftLeg  12.8711 -3.52923 -1.59445
LeftFoot  -3.82987 0.475273 -6.88577
LeftToes  -2.73175e-012 1.00346e-010 -4.28452e-011
